<svg width="16" height="16" viewBox="0 0 16 16" fill="none" xmlns="http://www.w3.org/2000/svg">
<path fill-rule="evenodd" clip-rule="evenodd" d="M8.35401 11.354C8.30756 11.4005 8.25239 11.4375 8.19164 11.4627C8.1309 11.4879 8.06578 11.5009 8.00001 11.5009C7.93424 11.5009 7.86912 11.4879 7.80838 11.4627C7.74763 11.4375 7.69246 11.4005 7.64601 11.354L1.64601 5.35396C1.55212 5.26007 1.49938 5.13274 1.49938 4.99996C1.49938 4.86718 1.55212 4.73985 1.64601 4.64596C1.7399 4.55207 1.86723 4.49933 2.00001 4.49933C2.13279 4.49933 2.26012 4.55207 2.35401 4.64596L8.00001 10.293L13.646 4.64596C13.7399 4.55207 13.8672 4.49933 14 4.49933C14.1328 4.49933 14.2601 4.55207 14.354 4.64596C14.4479 4.73985 14.5006 4.86719 14.5006 4.99996C14.5006 5.13274 14.4479 5.26007 14.354 5.35396L8.35401 11.354Z" fill="#4871F7"/>
</svg>
