<svg width="377" height="339" viewBox="0 0 377 339" fill="none" xmlns="http://www.w3.org/2000/svg">
<path d="M263.35 188.12V37.8423L75.5031 37.8423L75.5031 188.12C75.5031 198.084 79.4613 207.64 86.507 214.685C93.5526 221.731 103.109 225.689 113.073 225.689H225.781C235.745 225.689 245.301 221.731 252.346 214.685C259.392 207.64 263.35 198.084 263.35 188.12ZM56.7185 0.272949L338.489 0.272949C348.453 0.272949 358.009 4.23114 365.054 11.2768C372.1 18.3224 376.058 27.8783 376.058 37.8423V94.1964C376.058 104.16 372.1 113.716 365.054 120.762C358.009 127.808 348.453 131.766 338.489 131.766H300.919V188.12C300.919 208.048 293.003 227.16 278.912 241.251C264.821 255.342 245.709 263.259 225.781 263.259H113.073C93.1445 263.259 74.0326 255.342 59.9414 241.251C45.8501 227.16 37.9338 208.048 37.9338 188.12L37.9338 19.0576C37.9338 14.0756 39.9129 9.29767 43.4357 5.77486C46.9585 2.25204 51.7364 0.272949 56.7185 0.272949ZM300.919 37.8423V94.1964H338.489V37.8423L300.919 37.8423ZM0.36438 300.828H338.489V338.397H0.36438L0.36438 300.828Z" fill="#F8F8F8"/>
</svg>
