<svg width="51" height="29" viewBox="0 0 51 29" fill="none" xmlns="http://www.w3.org/2000/svg">
<g clip-path="url(#clip0_1_4)">
<path d="M41.4375 9.96875C39.6853 9.96875 38.0469 10.4482 36.6326 11.2701L30.4388 1.8125H39.1807C39.1689 2.26381 39.0633 3.01872 38.5442 3.61231C38.0096 4.22222 37.1453 4.53125 35.9732 4.53125C35.8524 4.53125 35.7366 4.57899 35.6512 4.66397C35.5658 4.74894 35.5179 4.8642 35.5179 4.98438C35.5179 5.10455 35.5658 5.21981 35.6512 5.30478C35.7366 5.38976 35.8524 5.4375 35.9732 5.4375C37.4203 5.4375 38.5159 5.02425 39.2299 4.20862C40.2891 2.99787 40.0769 1.36663 40.0669 1.29775C40.0519 1.18932 39.998 1.08994 39.9152 1.01798C39.8323 0.946015 39.7261 0.906328 39.6161 0.90625H29.5982C29.5159 0.905676 29.4349 0.927418 29.3641 0.969143C29.2932 1.01087 29.2351 1.071 29.196 1.14309C29.1569 1.21519 29.1382 1.29652 29.142 1.37837C29.1458 1.46021 29.1719 1.53949 29.2175 1.60769L31.7958 5.54444H17.3473L14.5396 0.90625H19.5804C19.7011 0.90625 19.8169 0.85851 19.9023 0.773533C19.9877 0.688555 20.0357 0.573301 20.0357 0.453125C20.0357 0.332949 19.9877 0.217695 19.9023 0.132717C19.8169 0.0477398 19.7011 0 19.5804 0L11.3839 0C11.2632 0 11.1473 0.0477398 11.0619 0.132717C10.9765 0.217695 10.9286 0.332949 10.9286 0.453125C10.9286 0.573301 10.9765 0.688555 11.0619 0.773533C11.1473 0.85851 11.2632 0.90625 11.3839 0.90625H13.4913C13.5004 0.927094 13.5022 0.94975 13.5141 0.969688L16.6214 6.10087L13.8401 10.9856C12.5138 10.3183 11.0487 9.97002 9.5625 9.96875C4.28946 9.96875 0 14.2372 0 19.4844C0 24.7316 4.28946 29 9.5625 29C14.6516 29 18.8126 25.0207 19.0521 19.9375H29.1429C29.1693 20.4622 29.0554 21.1772 28.5564 21.74C28.0172 22.3481 27.142 22.6562 25.9554 22.6562C25.8346 22.6562 25.7188 22.704 25.6334 22.789C25.548 22.8739 25.5 22.9892 25.5 23.1094C25.5 23.2296 25.548 23.3448 25.6334 23.4298C25.7188 23.5148 25.8346 23.5625 25.9554 23.5625C27.4198 23.5625 28.5272 23.1483 29.2467 22.3318C30.2867 21.1501 30.0909 19.5804 30.0827 19.5143C30.0683 19.4052 30.0146 19.3051 29.9315 19.2325C29.8484 19.16 29.7416 19.12 29.631 19.1201H26.0537L32.4715 6.57756L35.8685 11.7649C33.4551 13.4932 31.875 16.3053 31.875 19.4844C31.875 24.7316 36.1645 29 41.4375 29C46.7105 29 51 24.7316 51 19.4844C51 14.2372 46.7105 9.96875 41.4375 9.96875ZM31.5153 6.34375L25.2787 18.6398L17.8964 6.34375H31.5153ZM17.1606 6.99172L24.5055 19.1201H19.1068C19.047 17.5728 18.6081 16.0636 17.8285 14.7236C17.0488 13.3836 15.952 12.2534 14.6334 11.4314L17.1606 6.99172ZM18.1961 19.1201H10.2556L14.1844 12.219C15.363 12.9618 16.3435 13.9774 17.0421 15.1792C17.7406 16.3809 18.1366 17.733 18.1961 19.1201ZM9.5625 28.0938C4.79218 28.0938 0.910714 24.2313 0.910714 19.4844C0.910714 14.7374 4.79218 10.875 9.5625 10.875C10.9377 10.875 12.2345 11.2049 13.3911 11.7749L9.078 19.3493C9.03861 19.4182 9.01812 19.4961 9.0186 19.5754C9.01908 19.6546 9.04051 19.7323 9.08073 19.8007C9.16179 19.9393 9.31205 20.0254 9.47416 19.9366H18.187C17.9037 24.5204 14.1498 28.0938 9.5625 28.0938ZM41.4375 28.0938C36.6672 28.0938 32.7857 24.2313 32.7857 19.4844C32.7857 16.6233 34.201 14.0904 36.3666 12.5244L41.1452 19.8206C41.2114 19.9209 41.3148 19.9911 41.4329 20.0159C41.5509 20.0407 41.674 20.0181 41.7754 19.9529C41.8762 19.887 41.9468 19.7841 41.9717 19.6666C41.9966 19.5491 41.9738 19.4266 41.9083 19.3258L37.1298 12.0296C38.4383 11.2735 39.9244 10.8752 41.4375 10.875C46.2078 10.875 50.0893 14.7374 50.0893 19.4844C50.0893 24.2313 46.2078 28.0938 41.4375 28.0938Z" fill="white"/>
</g>
<defs>
<clipPath id="clip0_1_4">
<rect width="51" height="29" fill="white"/>
</clipPath>
</defs>
</svg>
