<svg width="475" height="475" viewBox="0 0 475 475" fill="none" xmlns="http://www.w3.org/2000/svg">
<g filter="url(#filter0_f_11_19)">
<path d="M430.469 222.656H400.095C398.426 204.101 393.567 185.973 385.733 169.07L412.044 153.874C415.454 151.906 417.943 148.663 418.962 144.86C419.982 141.057 419.449 137.004 417.48 133.594C415.512 130.183 412.27 127.695 408.466 126.675C404.663 125.656 400.61 126.189 397.2 128.157L370.853 143.372C360.089 128.174 346.826 114.911 331.628 104.147L346.843 77.7998C348.811 74.3895 349.344 70.337 348.325 66.5337C347.305 62.7304 344.816 59.4879 341.406 57.5195C337.996 55.5511 333.943 55.0181 330.14 56.0376C326.337 57.0572 323.094 59.5458 321.126 62.9561L305.93 89.2666C289.027 81.4325 270.899 76.5741 252.344 74.9053V44.5312C252.344 40.5944 250.78 36.8189 247.996 34.0351C245.212 31.2514 241.437 29.6875 237.5 29.6875C233.563 29.6875 229.788 31.2514 227.004 34.0351C224.22 36.8189 222.656 40.5944 222.656 44.5312V74.9053C204.101 76.5741 185.973 81.4325 169.07 89.2666L153.874 62.9561C151.906 59.5458 148.663 57.0572 144.86 56.0376C141.057 55.0181 137.004 55.5511 133.594 57.5195C130.183 59.4879 127.695 62.7304 126.675 66.5337C125.656 70.337 126.189 74.3895 128.157 77.7998L143.372 104.147C128.174 114.911 114.911 128.174 104.147 143.372L77.7998 128.157C74.3895 126.189 70.337 125.656 66.5337 126.675C62.7304 127.695 59.4879 130.183 57.5195 133.594C55.5511 137.004 55.0181 141.057 56.0376 144.86C57.0572 148.663 59.5458 151.906 62.9561 153.874L89.2666 169.07C81.4325 185.973 76.5741 204.101 74.9053 222.656H44.5312C40.5944 222.656 36.8189 224.22 34.0351 227.004C31.2514 229.788 29.6875 233.563 29.6875 237.5C29.6875 241.437 31.2514 245.212 34.0351 247.996C36.8189 250.78 40.5944 252.344 44.5312 252.344H74.9053C76.5741 270.899 81.4325 289.027 89.2666 305.93L62.9561 321.126C60.1246 322.759 57.9113 325.281 56.6597 328.301C55.4081 331.32 55.1882 334.668 56.0341 337.826C56.88 340.983 58.7444 343.773 61.338 345.762C63.9315 347.752 67.1092 348.829 70.3779 348.828C72.9842 348.836 75.5457 348.151 77.7998 346.843L104.147 331.628C114.911 346.826 128.174 360.089 143.372 370.853L128.157 397.2C126.189 400.61 125.656 404.663 126.675 408.466C127.695 412.27 130.183 415.512 133.594 417.48C137.004 419.449 141.057 419.982 144.86 418.962C148.663 417.943 151.906 415.454 153.874 412.044L169.07 385.733C185.973 393.567 204.101 398.426 222.656 400.095V430.469C222.656 434.406 224.22 438.181 227.004 440.965C229.788 443.749 233.563 445.312 237.5 445.312C241.437 445.312 245.212 443.749 247.996 440.965C250.78 438.181 252.344 434.406 252.344 430.469V400.095C270.899 398.426 289.027 393.567 305.93 385.733L321.126 412.044C323.094 415.454 326.337 417.943 330.14 418.962C333.943 419.982 337.996 419.449 341.406 417.48C344.816 415.512 347.305 412.27 348.325 408.466C349.344 404.663 348.811 400.61 346.843 397.2L331.628 370.853C346.826 360.089 360.089 346.826 370.853 331.628L397.2 346.843C398.889 347.818 400.753 348.451 402.686 348.705C404.619 348.96 406.583 348.831 408.467 348.326C410.35 347.821 412.115 346.95 413.662 345.763C415.209 344.575 416.506 343.095 417.48 341.406C419.451 337.998 419.988 333.947 418.971 330.144C417.955 326.341 415.47 323.097 412.062 321.126L385.752 305.93C393.58 289.026 398.432 270.898 400.095 252.344H430.469C434.406 252.344 438.181 250.78 440.965 247.996C443.749 245.212 445.312 241.437 445.312 237.5C445.312 233.563 443.749 229.788 440.965 227.004C438.181 224.22 434.406 222.656 430.469 222.656ZM237.5 103.906C270.347 103.945 302.031 116.071 326.512 137.972C350.993 159.872 366.558 190.016 370.24 222.656H246.072L183.988 115.132C200.854 107.719 219.077 103.896 237.5 103.906ZM103.906 237.5C103.918 216.573 108.845 195.942 118.291 177.268C127.738 158.595 141.438 142.402 158.29 129.994L220.355 237.5L158.29 345.006C141.438 332.598 127.738 316.405 118.291 297.732C108.845 279.058 103.918 258.427 103.906 237.5ZM237.5 371.094C219.084 371.133 200.861 367.342 183.988 359.961L246.072 252.344H370.24C366.558 284.984 350.993 315.128 326.512 337.028C302.031 358.929 270.347 371.055 237.5 371.094Z" fill="#F4F4F4"/>
</g>
<defs>
<filter id="filter0_f_11_19" x="-10" y="-10" width="495" height="495" filterUnits="userSpaceOnUse" color-interpolation-filters="sRGB">
<feFlood flood-opacity="0" result="BackgroundImageFix"/>
<feBlend mode="normal" in="SourceGraphic" in2="BackgroundImageFix" result="shape"/>
<feGaussianBlur stdDeviation="5" result="effect1_foregroundBlur_11_19"/>
</filter>
</defs>
</svg>
