<svg width="332" height="430" viewBox="0 0 332 430" fill="none" xmlns="http://www.w3.org/2000/svg">
<g filter="url(#filter0_f_11_19)">
<path d="M287.469 222.656H257.095C255.426 204.101 250.567 185.973 242.733 169.07L269.044 153.874C272.454 151.906 274.943 148.663 275.962 144.86C276.982 141.057 276.449 137.004 274.48 133.594C272.512 130.183 269.27 127.695 265.466 126.675C261.663 125.656 257.61 126.189 254.2 128.157L227.853 143.372C217.089 128.174 203.826 114.911 188.628 104.147L203.843 77.7998C205.811 74.3895 206.344 70.337 205.325 66.5337C204.305 62.7304 201.816 59.4879 198.406 57.5195C194.996 55.5511 190.943 55.0181 187.14 56.0376C183.337 57.0572 180.094 59.5458 178.126 62.9561L162.93 89.2666C146.027 81.4325 127.899 76.5741 109.344 74.9053V44.5312C109.344 40.5944 107.78 36.8189 104.996 34.0351C102.212 31.2514 98.4368 29.6875 94.5 29.6875C90.5632 29.6875 86.7876 31.2514 84.0039 34.0351C81.2201 36.8189 79.6562 40.5944 79.6562 44.5312V74.9053C61.1011 76.5741 42.9731 81.4325 26.0703 89.2666L10.874 62.9561C8.90562 59.5458 5.66312 57.0572 1.85983 56.0376C-1.94346 55.0181 -5.99599 55.5511 -9.40625 57.5195C-12.8165 59.4879 -15.3051 62.7304 -16.3247 66.5337C-17.3442 70.337 -16.8112 74.3895 -14.8428 77.7998L0.372063 104.147C-14.8261 114.911 -28.089 128.174 -38.8525 143.372L-65.2002 128.157C-68.6105 126.189 -72.663 125.656 -76.4663 126.675C-80.2696 127.695 -83.5121 130.183 -85.4805 133.594C-87.4489 137.004 -87.9819 141.057 -86.9624 144.86C-85.9428 148.663 -83.4542 151.906 -80.0439 153.874L-53.7334 169.07C-61.5675 185.973 -66.4259 204.101 -68.0947 222.656H-98.4688C-102.406 222.656 -106.181 224.22 -108.965 227.004C-111.749 229.788 -113.312 233.563 -113.312 237.5C-113.312 241.437 -111.749 245.212 -108.965 247.996C-106.181 250.78 -102.406 252.344 -98.4688 252.344H-68.0947C-66.4259 270.899 -61.5675 289.027 -53.7334 305.93L-80.0439 321.126C-82.8754 322.759 -85.0887 325.281 -86.3403 328.301C-87.5919 331.32 -87.8118 334.668 -86.9659 337.826C-86.12 340.983 -84.2556 343.773 -81.662 345.762C-79.0685 347.752 -75.8908 348.829 -72.6221 348.828C-70.0158 348.836 -67.4543 348.151 -65.2002 346.843L-38.8525 331.628C-28.089 346.826 -14.8261 360.089 0.372063 370.853L-14.8428 397.2C-16.8112 400.61 -17.3442 404.663 -16.3247 408.466C-15.3051 412.27 -12.8165 415.512 -9.40625 417.48C-5.99599 419.449 -1.94346 419.982 1.85983 418.962C5.66312 417.943 8.90562 415.454 10.874 412.044L26.0703 385.733C42.9731 393.567 61.1011 398.426 79.6562 400.095V430.469C79.6562 434.406 81.2201 438.181 84.0039 440.965C86.7876 443.749 90.5632 445.312 94.5 445.312C98.4368 445.312 102.212 443.749 104.996 440.965C107.78 438.181 109.344 434.406 109.344 430.469V400.095C127.899 398.426 146.027 393.567 162.93 385.733L178.126 412.044C180.094 415.454 183.337 417.943 187.14 418.962C190.943 419.982 194.996 419.449 198.406 417.48C201.816 415.512 204.305 412.27 205.325 408.466C206.344 404.663 205.811 400.61 203.843 397.2L188.628 370.853C203.826 360.089 217.089 346.826 227.853 331.628L254.2 346.843C255.889 347.818 257.753 348.451 259.686 348.705C261.619 348.96 263.583 348.831 265.467 348.326C267.35 347.821 269.115 346.95 270.662 345.763C272.209 344.575 273.506 343.095 274.48 341.406C276.451 337.998 276.988 333.947 275.971 330.144C274.955 326.341 272.47 323.097 269.062 321.126L242.752 305.93C250.58 289.026 255.432 270.898 257.095 252.344H287.469C291.406 252.344 295.181 250.78 297.965 247.996C300.749 245.212 302.312 241.437 302.312 237.5C302.312 233.563 300.749 229.788 297.965 227.004C295.181 224.22 291.406 222.656 287.469 222.656ZM94.5 103.906C127.347 103.945 159.031 116.071 183.512 137.972C207.993 159.872 223.558 190.016 227.24 222.656H103.072L40.9883 115.132C57.8539 107.719 76.0773 103.896 94.5 103.906ZM-39.0938 237.5C-39.0824 216.573 -34.1551 195.942 -24.7088 177.268C-15.2625 158.595 -1.56151 142.402 15.29 129.994L77.3555 237.5L15.29 345.006C-1.56151 332.598 -15.2625 316.405 -24.7088 297.732C-34.1551 279.058 -39.0824 258.427 -39.0938 237.5ZM94.5 371.094C76.0838 371.133 57.8608 367.342 40.9883 359.961L103.072 252.344H227.24C223.558 284.984 207.993 315.128 183.512 337.028C159.031 358.929 127.347 371.055 94.5 371.094Z" fill="#F4F4F4"/>
</g>
<defs>
<filter id="filter0_f_11_19" x="-153" y="-10" width="495" height="495" filterUnits="userSpaceOnUse" color-interpolation-filters="sRGB">
<feFlood flood-opacity="0" result="BackgroundImageFix"/>
<feBlend mode="normal" in="SourceGraphic" in2="BackgroundImageFix" result="shape"/>
<feGaussianBlur stdDeviation="5" result="effect1_foregroundBlur_11_19"/>
</filter>
</defs>
</svg>
