<svg width="284" height="314" viewBox="0 0 284 314" fill="none" xmlns="http://www.w3.org/2000/svg">
<g clip-path="url(#clip0_5_31)" filter="url(#filter0_f_5_31)">
<path d="M169.191 110.403C160.021 107.946 150.328 108.263 141.338 111.315C132.349 114.366 124.466 120.015 118.686 127.547C112.907 135.079 109.491 144.155 108.87 153.628C108.249 163.101 110.451 172.546 115.198 180.767C119.945 188.989 127.023 195.618 135.538 199.817C144.052 204.016 153.62 205.596 163.033 204.357C172.445 203.118 181.278 199.115 188.416 192.856C195.554 186.596 200.675 178.361 203.132 169.191C206.41 156.895 204.678 143.8 198.315 132.78C191.952 121.759 181.478 113.712 169.191 110.403ZM148.485 187.677C142.372 186.039 136.882 182.625 132.709 177.866C128.536 173.108 125.867 167.219 125.041 160.944C124.215 154.669 125.268 148.29 128.067 142.614C130.867 136.938 135.286 132.219 140.767 129.055C146.248 125.89 152.545 124.422 158.86 124.836C165.176 125.25 171.227 127.527 176.248 131.38C181.269 135.233 185.035 140.488 187.069 146.481C189.104 152.474 189.315 158.936 187.677 165.05C185.48 173.247 180.117 180.237 172.767 184.48C165.417 188.724 156.683 189.874 148.485 187.677ZM265.195 121.789L192.656 52.5032C190.721 50.6398 188.345 49.2976 185.75 48.6024C183.155 47.9071 180.427 47.8814 177.819 48.5278L80.3504 72.2804C77.567 72.9581 75.0166 74.3707 72.9656 76.3707C70.9146 78.3706 69.4381 80.8846 68.6904 83.6499L43.937 176.031C43.2018 178.8 43.2235 181.715 43.9998 184.473C44.776 187.23 46.2784 189.729 48.35 191.707L120.884 261.012C122.819 262.876 125.195 264.218 127.79 264.913C130.385 265.608 133.113 265.634 135.721 264.988L233.19 241.235C235.973 240.557 238.523 239.145 240.574 237.145C242.625 235.145 244.102 232.631 244.85 229.865L269.6 137.494C270.342 134.722 270.324 131.801 269.549 129.038C268.774 126.275 267.27 123.771 265.195 121.789ZM131.921 249.496L59.3892 180.182L84.1426 87.8007L181.614 64.0385L254.148 133.343L229.395 225.724L131.921 249.496Z" fill="#F4F4F4"/>
</g>
<defs>
<filter id="filter0_f_5_31" x="-12" y="-12" width="337.535" height="337.535" filterUnits="userSpaceOnUse" color-interpolation-filters="sRGB">
<feFlood flood-opacity="0" result="BackgroundImageFix"/>
<feBlend mode="normal" in="SourceGraphic" in2="BackgroundImageFix" result="shape"/>
<feGaussianBlur stdDeviation="6" result="effect1_foregroundBlur_5_31"/>
</filter>
<clipPath id="clip0_5_31">
<rect width="256" height="256" fill="white" transform="translate(66.2577) rotate(15)"/>
</clipPath>
</defs>
</svg>
